<svg width="18" height="18" viewBox="0 0 18 18" fill="none" xmlns="http://www.w3.org/2000/svg">
<path d="M15.4 7.73684C15.4 5.95012 14.7257 4.23658 13.5255 2.97318C12.3253 1.70977 10.6974 1 9.00001 1C7.30262 1 5.67476 1.70977 4.47452 2.97318C3.27429 4.23658 2.60001 5.95012 2.60001 7.73684" stroke="black" stroke-width="1.5" stroke-linecap="round" stroke-linejoin="round"/>
<path d="M15.4 13.6316V14.0526C15.4 14.4993 15.2314 14.9277 14.9314 15.2435C14.6313 15.5594 14.2243 15.7368 13.8 15.7368H11M1 11.4741V9.8943C1.00005 9.51873 1.11936 9.15395 1.33896 8.85794C1.55856 8.56194 1.86586 8.35169 2.212 8.26061L3.604 7.89346C3.67473 7.87491 3.74855 7.87357 3.81985 7.88953C3.89115 7.90549 3.95806 7.93834 4.0155 7.98557C4.07294 8.03281 4.11941 8.0932 4.15138 8.16216C4.18335 8.23111 4.19997 8.30683 4.2 8.38356V12.984C4.20013 13.0609 4.18358 13.1368 4.15162 13.2059C4.11966 13.2751 4.07313 13.3356 4.01557 13.383C3.95801 13.4303 3.89095 13.4632 3.81949 13.4791C3.74803 13.4951 3.67405 13.4936 3.6032 13.4749L2.2112 13.1086C1.86521 13.0174 1.55809 12.8071 1.33865 12.5111C1.1192 12.2151 1.00001 11.8504 1 11.4749V11.4741ZM17 11.4741V9.8943C16.9999 9.51873 16.8806 9.15395 16.661 8.85794C16.4414 8.56194 16.1341 8.35169 15.788 8.26061L14.396 7.89346C14.3253 7.87491 14.2515 7.87357 14.1802 7.88953C14.1089 7.90549 14.0419 7.93834 13.9845 7.98557C13.9271 8.03281 13.8806 8.0932 13.8486 8.16216C13.8167 8.23111 13.8 8.30683 13.8 8.38356V12.984C13.7999 13.0608 13.8164 13.1366 13.8484 13.2057C13.8803 13.2747 13.9267 13.3352 13.9842 13.3826C14.0416 13.4299 14.1086 13.4628 14.18 13.4788C14.2513 13.4948 14.3252 13.4935 14.396 13.4749L15.788 13.1086C16.1341 13.0175 16.4414 12.8073 16.661 12.5113C16.8806 12.2153 16.9999 11.8505 17 11.4749V11.4741Z" stroke="black" stroke-width="1.5"/>
<path d="M10.2 17H7.80001C7.48175 17 7.17652 16.8669 6.95148 16.63C6.72643 16.3932 6.60001 16.0719 6.60001 15.7369C6.60001 15.4018 6.72643 15.0806 6.95148 14.8437C7.17652 14.6068 7.48175 14.4737 7.80001 14.4737H10.2C10.5183 14.4737 10.8235 14.6068 11.0485 14.8437C11.2736 15.0806 11.4 15.4018 11.4 15.7369C11.4 16.0719 11.2736 16.3932 11.0485 16.63C10.8235 16.8669 10.5183 17 10.2 17Z" stroke="black" stroke-width="1.5"/>
</svg>
