<svg width="30" height="28" viewBox="0 0 30 28" fill="none" xmlns="http://www.w3.org/2000/svg">
<path d="M28.081 14.4044C27.4606 13.4541 26.6303 13.1981 26.6303 13.1981C26.6303 13.1981 26.4531 12.276 25.5971 11.6142C24.6992 10.9221 23.2275 10.7138 21.4269 10.8396C19.2485 10.9915 17.2567 12.3866 17.2567 12.3866C17.2567 12.3866 16.6107 11.3777 15.8014 10.8592C15.2206 10.486 13.5787 9.59643 11.7618 9.49445C9.43416 9.36427 6.64005 9.83075 6.64005 9.83075C6.64005 9.83075 4.87682 8.93468 4.3847 8.55716C3.89258 8.17964 3.26752 7.50922 2.76374 7.09048C2.29028 6.69777 1.98708 6.21394 1.70254 6.29638C1.52762 6.34629 1.46231 6.53071 1.54861 6.74333C1.6349 6.95596 2.39057 7.98654 2.52352 8.18832C2.65412 8.39227 3.48676 9.47059 3.48676 9.47059C3.48676 9.47059 2.90601 9.28834 2.43722 9.04317C2.16667 8.90214 1.3317 8.54415 1.12413 8.76762C0.86524 9.04534 1.93344 9.65284 2.39291 9.94791C2.85237 10.243 3.91357 11.0371 3.91357 11.0371C3.91357 11.0371 3.66168 11.0566 3.30018 11.0566C2.93867 11.0566 2.58882 11.1065 2.64246 11.3625C2.69611 11.6164 3.4751 11.7487 3.96722 11.9744C4.45934 12.1978 5.60917 12.5645 5.60917 12.5645L8.00679 13.786L9.77934 15.3851C9.77934 15.3851 8.26801 15.4263 7.91816 15.3352C7.56831 15.244 7.01089 14.9576 6.73567 14.9077C6.46279 14.8578 5.39926 15.4068 4.60161 15.7322C3.80396 16.0577 3.30018 16.3158 3.33283 16.4764C3.40513 16.8387 4.14214 16.7107 4.54796 16.6283C4.95379 16.5458 6.70302 15.9058 6.70302 15.9058C6.70302 15.9058 6.89427 16.0642 7.07619 16.1748C7.33041 16.3332 7.66627 16.4742 7.66627 16.4742C7.66627 16.4742 7.11817 16.4938 6.87795 16.637C6.63772 16.7802 6.5281 17.1056 6.39749 17.4506C6.26688 17.7977 5.58818 18.9173 5.30363 19.3035C5.01909 19.6897 4.42902 20.4534 4.58062 20.6573C4.73455 20.8613 4.93046 20.8201 5.0844 20.7398C5.23833 20.6573 6.24356 19.5291 6.61673 19.08C6.9899 18.633 7.79921 17.533 7.79921 17.533C7.79921 17.533 8.16072 17.6111 8.32398 17.635C8.54322 17.6654 9.047 17.6957 9.047 17.6957C9.047 17.6957 8.54788 17.8476 8.47791 18.2447C8.42893 18.518 8.11641 19.3035 8.03011 19.6506C7.94148 19.9978 7.31875 21.1173 7.27444 21.2995C7.23013 21.4818 7.24645 22.0329 7.29077 22.3996C7.33508 22.7662 7.36307 23.4171 7.73391 23.3759C8.10708 23.3347 8.12807 21.7465 8.12807 21.7465C8.12807 21.7465 8.78578 20.8201 9.047 20.2907C9.31055 19.7613 9.59509 18.6309 9.59509 18.6309C9.59509 18.6309 10.2411 18.6808 10.4814 18.6808C10.7216 18.6808 11.258 18.6309 11.258 18.6309C11.258 18.6309 10.8196 20.768 10.9525 21.9092C11.0831 23.0505 11.4003 24.413 11.7735 24.413C12.1466 24.413 12.0953 23.7317 12.1187 23.1806C12.1396 22.6317 12.0044 22.4169 12.0697 21.4796C12.135 20.5423 12.6388 18.8934 12.6388 18.8934C12.6388 18.8934 14.423 19.0561 15.244 18.8934C15.8014 18.7827 16.8626 18.5766 17.357 18.1492C17.6626 17.8845 17.6952 17.609 17.6952 17.609L19.2392 17.5786L22.5558 17.3855L24.0111 16.2443C24.0111 16.2443 24.4379 16.4677 24.7598 16.8344C25.0817 17.2011 25.4222 17.507 25.5155 18.2555C25.6088 19.0041 25.5644 19.8697 25.5644 19.8697C25.5644 19.8697 24.8741 20.0628 24.263 20.3384C23.5843 20.6443 22.5744 21.4731 22.1826 21.8854C21.6905 22.4039 21.2403 23.2696 21.35 23.3933C21.4596 23.5148 22.4275 23.2956 22.7517 23.1893C23.0712 23.083 24.0205 22.6404 24.0205 22.6404C24.0205 22.6404 23.54 23.1698 23.2764 23.4757C23.0129 23.7816 22.1173 24.9207 22.1383 25.1051C22.1593 25.2874 24.0648 25.1767 25.4222 24.6582C26.691 24.1722 27.8198 22.9181 28.0717 21.9917C28.2933 21.1737 28.06 20.0824 28.06 20.0824L28.3072 19.5269C28.3072 19.5269 28.6291 18.9802 28.7504 18.1731C28.8577 17.4484 28.8903 15.6454 28.081 14.4044ZM15.6148 17.4679C15.2649 17.6003 14.7822 17.5808 14.7822 17.5808C14.7822 17.5808 15.195 17.4007 15.3396 17.3052C15.5262 17.1837 15.7221 17.0709 15.9297 17.1316C16.1372 17.1924 15.9646 17.3356 15.6148 17.4679Z" fill="#FE6117"/>
<path d="M6.13623 10.1822C6.04993 10.1822 5.96364 10.1496 5.90066 10.0845C5.78172 9.96305 5.78871 9.77429 5.91932 9.66363C6.01961 9.57902 8.39857 7.55907 10.577 6.79318C12.5128 6.11408 14.3483 5.80599 16.1932 5.85806C16.8299 5.87542 17.8095 5.96871 18.845 6.06852C20.2514 6.20303 21.8444 6.35925 22.8776 6.34623C24.6338 6.3267 25.8396 6.07069 25.8513 6.06852C25.9331 6.05327 26.0181 6.06829 26.0883 6.11038C26.1584 6.15247 26.2081 6.21832 26.2269 6.29396C26.2458 6.36961 26.2322 6.44909 26.189 6.51556C26.1459 6.58202 26.0766 6.63024 25.9959 6.64998C25.9446 6.66083 24.7154 6.92119 22.8846 6.94289C21.814 6.95807 20.2001 6.79969 18.7774 6.663C17.7535 6.56537 16.7879 6.47207 16.1722 6.45471C14.4136 6.40481 12.6574 6.69989 10.8009 7.35078C8.73909 8.07545 6.37412 10.0824 6.3508 10.1019C6.29349 10.154 6.21634 10.1828 6.13623 10.1822Z" fill="#FE6117"/>
<path d="M4.93295 9.36641C4.87557 9.3664 4.81924 9.35206 4.76986 9.32488C4.72047 9.29771 4.67983 9.25869 4.65219 9.21192C4.62454 9.16514 4.61091 9.11232 4.61271 9.05897C4.6145 9.00561 4.63167 8.95369 4.6624 8.90861C4.70672 8.84352 5.74926 7.31826 7.30725 6.45039C8.72063 5.66281 10.948 4.69297 13.5392 4.55629C15.8972 4.43045 17.8376 4.37186 19.6429 4.37186C21.2661 4.37186 22.5699 4.25253 23.1413 4.13537C23.6801 4.02472 24.2142 3.76002 24.2189 3.75568C24.3751 3.67757 24.5687 3.73182 24.6527 3.87718C24.7366 4.02255 24.6783 4.20263 24.5221 4.28074C24.4964 4.29376 23.9063 4.58666 23.2789 4.71684C22.6725 4.84268 21.3151 4.96852 19.6405 4.96852C17.847 4.96852 15.9181 5.0271 13.5742 5.15077C11.1136 5.28095 8.98651 6.20739 7.6361 6.96243C6.20873 7.7587 5.21283 9.21236 5.2035 9.22755C5.14286 9.31868 5.0379 9.36641 4.93295 9.36641Z" fill="#FE6117"/>
<path d="M25.5854 19.2296C25.5854 19.2296 26.1405 19.6635 26.8286 19.7633C27.6659 19.8848 28.3073 19.5334 28.3073 19.5334L28.0927 20.3123C28.0927 20.3123 27.4909 20.5618 26.67 20.4099C26.0169 20.2884 25.5645 19.9456 25.5645 19.9456L25.5854 19.2296Z" fill="#FE8E06"/>
<path d="M25.3125 17.5547C25.3125 17.5547 26.4623 17.5699 27.316 17.2943C28.2232 17.0014 28.7503 16.3375 28.7503 16.3375L28.8156 17.3247C28.8156 17.3247 28.4821 17.763 27.4792 18.0993C26.7749 18.3358 25.5154 18.2663 25.5154 18.2663L25.3125 17.5547Z" fill="#FE8E06"/>
<path d="M19.6218 11.2062L18.8381 11.5208C18.8381 11.5208 20.3938 13.0157 20.5734 14.2958C20.7693 15.7018 20.2282 16.6759 20.0813 16.984C19.9506 17.2596 19.7851 17.5178 19.7851 17.5178L18.8661 17.5785C18.8661 17.5785 19.0947 18.5375 20.2445 18.5874C21.6556 18.6482 21.8865 17.5481 21.8865 17.5481C21.8865 17.5481 22.4276 18.4789 23.5611 18.0211C24.6946 17.5633 24.2188 16.4937 24.2188 16.4937L24.7599 16.8452C24.7599 16.8452 25.7698 16.446 26.4182 15.2722C26.9919 14.2329 27.0152 13.3477 26.9383 13.2978C26.8613 13.2479 26.6327 13.1958 26.6327 13.1958C26.6327 13.1958 26.4788 12.6057 26.3972 12.5601C26.4018 12.764 26.3692 13.6862 26.059 14.4954C25.8071 15.1463 25.3989 15.6953 24.9091 16.0077C24.5966 16.2073 24.3517 16.1747 24.3517 16.1747C24.3517 16.1747 25.0421 14.9684 24.6969 13.1806C24.403 11.6619 23.2532 10.8331 23.2532 10.8331L22.22 10.7983C22.22 10.7983 23.5657 11.5165 23.9109 13.4258C24.1791 14.9163 23.5821 16.3114 23.2042 16.6022C22.8264 16.8929 20.7413 17.2899 20.7413 17.2899C20.7413 17.2899 21.5949 15.7321 21.399 14.3414C21.1914 12.9224 20.2935 11.7877 19.6218 11.2062Z" fill="#FE8E06"/>
<path d="M9.72099 12.6469C9.53208 12.8812 9.76997 13.1503 10.4277 13.3803C11.0854 13.6102 12.072 13.6797 12.676 13.7317C13.3991 13.7925 14.8101 13.6254 15.0737 13.5169C15.3372 13.4106 15.4188 13.0895 15.2696 12.9376C15.1203 12.7858 14.7611 12.8465 14.4812 12.9225C14.2014 12.9984 13.7093 13.096 12.725 13.0591C11.8714 13.0288 10.7962 12.8856 10.493 12.7532C10.2458 12.6469 9.91691 12.4039 9.72099 12.6469Z" fill="#FE8E06"/>
<path d="M5.61157 12.571C5.61157 12.571 7.20921 14.9533 10.668 15.8081C13.3712 16.4764 14.8709 15.8277 15.265 15.6259C15.6592 15.4219 16.0907 14.9837 15.9647 14.5866C15.8108 14.0984 14.8545 14.1288 13.1683 14.2503C11.482 14.3718 8.5876 13.569 7.97421 13.3651C7.36081 13.1611 5.80749 12.5103 5.61157 12.571Z" fill="#FE8E06"/>
<path d="M8.87204 11.4102C8.5805 11.8116 7.82249 11.9136 7.40268 11.6055C6.99452 11.3061 6.95954 10.7919 7.25108 10.3926C7.54262 9.99342 8.22132 9.85673 8.6528 10.1279C9.08428 10.3991 9.16358 11.011 8.87204 11.4102Z" fill="#302C30"/>
</svg>
