<svg width="22" height="20" viewBox="0 0 22 20" fill="none" xmlns="http://www.w3.org/2000/svg">
<path d="M21 18.4046L19 16.6641M10.5 17.5344C11.7476 17.5344 12.9829 17.3205 14.1355 16.9051C15.2881 16.4896 16.3354 15.8806 17.2175 15.113C18.0997 14.3453 18.7994 13.4339 19.2769 12.4309C19.7543 11.4279 20 10.3528 20 9.26718C20 8.18152 19.7543 7.10648 19.2769 6.10346C18.7994 5.10044 18.0997 4.18908 17.2175 3.4214C16.3354 2.65372 15.2881 2.04477 14.1355 1.6293C12.9829 1.21384 11.7476 1 10.5 1C7.98044 1 5.56408 1.871 3.78249 3.4214C2.00089 4.9718 1 7.07458 1 9.26718C1 11.4598 2.00089 13.5626 3.78249 15.113C5.56408 16.6633 7.98044 17.5344 10.5 17.5344V17.5344Z" stroke="#9292B2" stroke-width="1.5" stroke-linecap="round" stroke-linejoin="round"/>
</svg>
