<svg width="22" height="22" viewBox="0 0 22 22" fill="none" xmlns="http://www.w3.org/2000/svg">
<path d="M13.3192 8.68083L8.68085 13.3192C8.06576 12.7041 7.72021 11.8699 7.72021 11C7.72021 10.5693 7.80505 10.1428 7.96987 9.74487C8.1347 9.34695 8.37629 8.98539 8.68085 8.68083C8.9854 8.37627 9.34696 8.13468 9.74489 7.96986C10.1428 7.80503 10.5693 7.7202 11 7.7202C11.8699 7.7202 12.7041 8.06575 13.3192 8.68083V8.68083Z" stroke="#9393B2" stroke-width="1.5" stroke-linecap="round" stroke-linejoin="round"/>
<path d="M16.335 5.28917C14.7308 4.07917 12.8975 3.41917 11 3.41917C7.76418 3.41917 4.74834 5.32583 2.64918 8.62583C1.82418 9.91833 1.82418 12.0908 2.64918 13.3833C3.37334 14.52 4.21668 15.5008 5.13334 16.2892M7.71834 17.9025C8.76334 18.3425 9.87251 18.5808 11 18.5808C14.2358 18.5808 17.2517 16.6742 19.3508 13.3742C20.1758 12.0817 20.1758 9.90917 19.3508 8.61667C19.0483 8.14 18.7183 7.69083 18.3792 7.26917" stroke="#9393B2" stroke-width="1.5" stroke-linecap="round" stroke-linejoin="round"/>
<path d="M14.2175 11.6417C14.0933 12.2811 13.7809 12.8689 13.3203 13.3295C12.8597 13.7901 12.272 14.1025 11.6325 14.2267M8.68084 13.3192L1.83334 20.1667M20.1667 1.83334L13.3192 8.68084" stroke="#9393B2" stroke-width="1.5" stroke-linecap="round" stroke-linejoin="round"/>
</svg>
