<svg width="56" height="54" viewBox="0 0 56 54" fill="none" xmlns="http://www.w3.org/2000/svg">
<path d="M1.15206 36L4.95606 27.6H6.14406L9.96006 36H8.70006L5.30406 28.272H5.78406L2.38806 36H1.15206ZM2.77206 33.9L3.09606 32.94H7.82406L8.17206 33.9H2.77206ZM13.6145 36.072C12.9985 36.072 12.4465 35.936 11.9585 35.664C11.4785 35.392 11.0985 35.012 10.8185 34.524C10.5385 34.036 10.3985 33.468 10.3985 32.82C10.3985 32.172 10.5385 31.608 10.8185 31.128C11.0985 30.64 11.4785 30.26 11.9585 29.988C12.4465 29.716 12.9985 29.58 13.6145 29.58C14.1505 29.58 14.6345 29.7 15.0665 29.94C15.4985 30.18 15.8425 30.54 16.0985 31.02C16.3625 31.5 16.4945 32.1 16.4945 32.82C16.4945 33.54 16.3665 34.14 16.1105 34.62C15.8625 35.1 15.5225 35.464 15.0905 35.712C14.6585 35.952 14.1665 36.072 13.6145 36.072ZM13.7105 35.064C14.1105 35.064 14.4705 34.972 14.7905 34.788C15.1185 34.604 15.3745 34.344 15.5585 34.008C15.7505 33.664 15.8465 33.268 15.8465 32.82C15.8465 32.364 15.7505 31.972 15.5585 31.644C15.3745 31.308 15.1185 31.048 14.7905 30.864C14.4705 30.68 14.1105 30.588 13.7105 30.588C13.3025 30.588 12.9385 30.68 12.6185 30.864C12.2985 31.048 12.0425 31.308 11.8505 31.644C11.6585 31.972 11.5625 32.364 11.5625 32.82C11.5625 33.268 11.6585 33.664 11.8505 34.008C12.0425 34.344 12.2985 34.604 12.6185 34.788C12.9385 34.972 13.3025 35.064 13.7105 35.064ZM15.8825 36V34.284L15.9545 32.808L15.8345 31.332V27.096H16.9865V36H15.8825ZM18.3502 38.4C18.0862 38.4 17.8342 38.368 17.5942 38.304C17.3462 38.24 17.1382 38.144 16.9702 38.016L17.3422 37.128C17.5822 37.328 17.8942 37.428 18.2782 37.428C18.5822 37.428 18.8142 37.332 18.9742 37.14C19.1422 36.956 19.2262 36.68 19.2262 36.312V29.64H20.3782V36.288C20.3782 36.936 20.2022 37.448 19.8502 37.824C19.5062 38.208 19.0062 38.4 18.3502 38.4ZM19.8022 28.416C19.5782 28.416 19.3902 28.344 19.2382 28.2C19.0942 28.056 19.0222 27.88 19.0222 27.672C19.0222 27.456 19.0942 27.276 19.2382 27.132C19.3902 26.988 19.5782 26.916 19.8022 26.916C20.0262 26.916 20.2102 26.988 20.3542 27.132C20.5062 27.268 20.5822 27.44 20.5822 27.648C20.5822 27.864 20.5102 28.048 20.3662 28.2C20.2222 28.344 20.0342 28.416 19.8022 28.416ZM25.2524 36.072C24.7084 36.072 24.2284 35.972 23.8124 35.772C23.4044 35.572 23.0844 35.268 22.8524 34.86C22.6284 34.444 22.5164 33.924 22.5164 33.3V29.64H23.6684V33.168C23.6684 33.792 23.8164 34.26 24.1124 34.572C24.4164 34.884 24.8404 35.04 25.3844 35.04C25.7844 35.04 26.1324 34.96 26.4284 34.8C26.7244 34.632 26.9524 34.392 27.1124 34.08C27.2724 33.76 27.3524 33.376 27.3524 32.928V29.64H28.5044V36H27.4124V34.284L27.5924 34.74C27.3844 35.164 27.0724 35.492 26.6564 35.724C26.2404 35.956 25.7724 36.072 25.2524 36.072ZM34.0935 29.58C34.6135 29.58 35.0695 29.68 35.4615 29.88C35.8615 30.08 36.1735 30.384 36.3975 30.792C36.6215 31.2 36.7335 31.716 36.7335 32.34V36H35.5815V32.472C35.5815 31.856 35.4295 31.392 35.1255 31.08C34.8295 30.768 34.4095 30.612 33.8655 30.612C33.4575 30.612 33.1015 30.692 32.7975 30.852C32.4935 31.012 32.2575 31.248 32.0895 31.56C31.9295 31.872 31.8495 32.26 31.8495 32.724V36H30.6975V29.64H31.8015V31.356L31.6215 30.9C31.8295 30.484 32.1495 30.16 32.5815 29.928C33.0135 29.696 33.5175 29.58 34.0935 29.58ZM41.0494 36.072C40.4094 36.072 39.9134 35.9 39.5614 35.556C39.2094 35.212 39.0334 34.72 39.0334 34.08V28.248H40.1854V34.032C40.1854 34.376 40.2694 34.64 40.4374 34.824C40.6134 35.008 40.8614 35.1 41.1814 35.1C41.5414 35.1 41.8414 35 42.0814 34.8L42.4414 35.628C42.2654 35.78 42.0534 35.892 41.8054 35.964C41.5654 36.036 41.3134 36.072 41.0494 36.072ZM37.9534 30.588V29.64H42.0094V30.588H37.9534ZM47.7822 36V34.656L47.7222 34.404V32.112C47.7222 31.624 47.5782 31.248 47.2902 30.984C47.0102 30.712 46.5862 30.576 46.0182 30.576C45.6422 30.576 45.2742 30.64 44.9142 30.768C44.5542 30.888 44.2502 31.052 44.0022 31.26L43.5222 30.396C43.8502 30.132 44.2422 29.932 44.6982 29.796C45.1622 29.652 45.6462 29.58 46.1502 29.58C47.0222 29.58 47.6942 29.792 48.1662 30.216C48.6382 30.64 48.8742 31.288 48.8742 32.16V36H47.7822ZM45.6942 36.072C45.2222 36.072 44.8062 35.992 44.4462 35.832C44.0942 35.672 43.8222 35.452 43.6302 35.172C43.4382 34.884 43.3422 34.56 43.3422 34.2C43.3422 33.856 43.4222 33.544 43.5822 33.264C43.7502 32.984 44.0182 32.76 44.3862 32.592C44.7622 32.424 45.2662 32.34 45.8982 32.34H47.9142V33.168H45.9462C45.3702 33.168 44.9822 33.264 44.7822 33.456C44.5822 33.648 44.4822 33.88 44.4822 34.152C44.4822 34.464 44.6062 34.716 44.8542 34.908C45.1022 35.092 45.4462 35.184 45.8862 35.184C46.3182 35.184 46.6942 35.088 47.0142 34.896C47.3422 34.704 47.5782 34.424 47.7222 34.056L47.9502 34.848C47.7982 35.224 47.5302 35.524 47.1462 35.748C46.7622 35.964 46.2782 36.072 45.6942 36.072ZM51.0061 36V29.64H52.1101V31.368L52.0021 30.936C52.1781 30.496 52.4741 30.16 52.8901 29.928C53.3061 29.696 53.8181 29.58 54.4261 29.58V30.696C54.3781 30.688 54.3301 30.684 54.2821 30.684C54.2421 30.684 54.2021 30.684 54.1621 30.684C53.5461 30.684 53.0581 30.868 52.6981 31.236C52.3381 31.604 52.1581 32.136 52.1581 32.832V36H51.0061ZM10.8447 51V49.656L10.7847 49.404V47.112C10.7847 46.624 10.6407 46.248 10.3527 45.984C10.0727 45.712 9.64869 45.576 9.08069 45.576C8.70469 45.576 8.33669 45.64 7.97669 45.768C7.61669 45.888 7.31269 46.052 7.06469 46.26L6.58469 45.396C6.91269 45.132 7.30469 44.932 7.76069 44.796C8.22469 44.652 8.70869 44.58 9.21269 44.58C10.0847 44.58 10.7567 44.792 11.2287 45.216C11.7007 45.64 11.9367 46.288 11.9367 47.16V51H10.8447ZM8.75669 51.072C8.28469 51.072 7.86869 50.992 7.50869 50.832C7.15669 50.672 6.88469 50.452 6.69269 50.172C6.50069 49.884 6.40469 49.56 6.40469 49.2C6.40469 48.856 6.48469 48.544 6.64469 48.264C6.81269 47.984 7.08069 47.76 7.44869 47.592C7.82469 47.424 8.32869 47.34 8.96069 47.34H10.9767V48.168H9.00869C8.43269 48.168 8.04469 48.264 7.84469 48.456C7.64469 48.648 7.54469 48.88 7.54469 49.152C7.54469 49.464 7.66869 49.716 7.91669 49.908C8.16469 50.092 8.50869 50.184 8.94869 50.184C9.38069 50.184 9.75669 50.088 10.0767 49.896C10.4047 49.704 10.6407 49.424 10.7847 49.056L11.0127 49.848C10.8607 50.224 10.5927 50.524 10.2087 50.748C9.82469 50.964 9.34069 51.072 8.75669 51.072ZM14.0686 51V44.64H15.1726V46.368L15.0646 45.936C15.2406 45.496 15.5366 45.16 15.9526 44.928C16.3686 44.696 16.8806 44.58 17.4886 44.58V45.696C17.4406 45.688 17.3926 45.684 17.3446 45.684C17.3046 45.684 17.2646 45.684 17.2246 45.684C16.6086 45.684 16.1206 45.868 15.7606 46.236C15.4006 46.604 15.2206 47.136 15.2206 47.832V51H14.0686ZM21.6218 51.072C20.9738 51.072 20.3938 50.932 19.8818 50.652C19.3778 50.372 18.9818 49.988 18.6938 49.5C18.4058 49.012 18.2618 48.452 18.2618 47.82C18.2618 47.188 18.4058 46.628 18.6938 46.14C18.9818 45.652 19.3778 45.272 19.8818 45C20.3938 44.72 20.9738 44.58 21.6218 44.58C22.1978 44.58 22.7098 44.696 23.1578 44.928C23.6138 45.152 23.9658 45.488 24.2138 45.936L23.3378 46.5C23.1298 46.188 22.8738 45.96 22.5698 45.816C22.2738 45.664 21.9538 45.588 21.6098 45.588C21.1938 45.588 20.8218 45.68 20.4938 45.864C20.1658 46.048 19.9058 46.308 19.7138 46.644C19.5218 46.972 19.4258 47.364 19.4258 47.82C19.4258 48.276 19.5218 48.672 19.7138 49.008C19.9058 49.344 20.1658 49.604 20.4938 49.788C20.8218 49.972 21.1938 50.064 21.6098 50.064C21.9538 50.064 22.2738 49.992 22.5698 49.848C22.8738 49.696 23.1298 49.464 23.3378 49.152L24.2138 49.704C23.9658 50.144 23.6138 50.484 23.1578 50.724C22.7098 50.956 22.1978 51.072 21.6218 51.072ZM29.0193 44.58C29.5393 44.58 29.9953 44.68 30.3873 44.88C30.7873 45.08 31.0993 45.384 31.3233 45.792C31.5473 46.2 31.6593 46.716 31.6593 47.34V51H30.5073V47.472C30.5073 46.856 30.3553 46.392 30.0513 46.08C29.7553 45.768 29.3353 45.612 28.7913 45.612C28.3833 45.612 28.0273 45.692 27.7233 45.852C27.4193 46.012 27.1833 46.248 27.0153 46.56C26.8553 46.872 26.7753 47.26 26.7753 47.724V51H25.6233V42.096H26.7753V46.356L26.5473 45.9C26.7553 45.484 27.0753 45.16 27.5073 44.928C27.9393 44.696 28.4433 44.58 29.0193 44.58ZM33.7912 51V44.64H34.9432V51H33.7912ZM34.3672 43.416C34.1432 43.416 33.9552 43.344 33.8032 43.2C33.6592 43.056 33.5872 42.88 33.5872 42.672C33.5872 42.456 33.6592 42.276 33.8032 42.132C33.9552 41.988 34.1432 41.916 34.3672 41.916C34.5912 41.916 34.7752 41.988 34.9192 42.132C35.0712 42.268 35.1472 42.44 35.1472 42.648C35.1472 42.864 35.0752 43.048 34.9312 43.2C34.7872 43.344 34.5992 43.416 34.3672 43.416ZM38.8108 51L36.0268 44.64H37.2268L39.6988 50.4H39.1228L41.6428 44.64H42.7708L39.9868 51H38.8108ZM46.3941 51.072C45.7541 51.072 45.1861 50.932 44.6901 50.652C44.1941 50.372 43.8021 49.988 43.5141 49.5C43.2261 49.004 43.0821 48.444 43.0821 47.82C43.0821 47.188 43.2261 46.628 43.5141 46.14C43.8021 45.652 44.1941 45.272 44.6901 45C45.1861 44.72 45.7541 44.58 46.3941 44.58C47.0261 44.58 47.5901 44.72 48.0861 45C48.5901 45.272 48.9821 45.652 49.2621 46.14C49.5501 46.62 49.6941 47.18 49.6941 47.82C49.6941 48.452 49.5501 49.012 49.2621 49.5C48.9821 49.988 48.5901 50.372 48.0861 50.652C47.5901 50.932 47.0261 51.072 46.3941 51.072ZM46.3941 50.064C46.8021 50.064 47.1661 49.972 47.4861 49.788C47.8141 49.604 48.0701 49.344 48.2541 49.008C48.4381 48.664 48.5301 48.268 48.5301 47.82C48.5301 47.364 48.4381 46.972 48.2541 46.644C48.0701 46.308 47.8141 46.048 47.4861 45.864C47.1661 45.68 46.8021 45.588 46.3941 45.588C45.9861 45.588 45.6221 45.68 45.3021 45.864C44.9821 46.048 44.7261 46.308 44.5341 46.644C44.3421 46.972 44.2461 47.364 44.2461 47.82C44.2461 48.268 44.3421 48.664 44.5341 49.008C44.7261 49.344 44.9821 49.604 45.3021 49.788C45.6221 49.972 45.9861 50.064 46.3941 50.064Z" fill="#9393B2"/>
<path d="M31 1H23C19 1 17 2.74046 17 6.22137V17.5344C17 18.013 17.45 18.4046 18 18.4046H31C35 18.4046 37 16.6641 37 13.1832V6.22137C37 2.74046 35 1 31 1Z" stroke="#9393B2" stroke-width="1.5" stroke-linecap="round" stroke-linejoin="round"/>
<path d="M23 9.7023H30M26.5 12.7481V6.65649" stroke="#9393B2" stroke-width="1.5" stroke-miterlimit="10" stroke-linecap="round" stroke-linejoin="round"/>
</svg>
