<svg width="18" height="20" viewBox="0 0 18 20" fill="none" xmlns="http://www.w3.org/2000/svg">
<path d="M14.0742 8.75C14.4414 8.85417 14.791 8.99554 15.123 9.17411C15.4551 9.35268 15.8027 9.62426 16.166 9.98884C16.5293 10.3534 16.8398 10.7831 17.0977 11.2779C17.3555 11.7727 17.5703 12.4126 17.7422 13.1975C17.9141 13.9825 18 14.8624 18 15.8371C18 16.9829 17.6094 17.9632 16.8281 18.7779C16.0469 19.5926 15.1055 20 14.0039 20H3.99609C2.89453 20 1.95312 19.5926 1.17188 18.7779C0.390625 17.9632 0 16.9829 0 15.8371C0 14.8624 0.0859375 13.9825 0.257812 13.1975C0.429688 12.4126 0.644531 11.7727 0.902344 11.2779C1.16016 10.7831 1.4707 10.3534 1.83398 9.98884C2.19727 9.62426 2.54492 9.35268 2.87695 9.17411C3.20898 8.99554 3.55859 8.85417 3.92578 8.75C3.30859 7.81994 3 6.80804 3 5.71429C3 4.94048 3.1582 4.20201 3.47461 3.49888C3.79102 2.79576 4.21875 2.1875 4.75781 1.67411C5.29688 1.16071 5.93555 0.753348 6.67383 0.452009C7.41211 0.15067 8.1875 0 9 0C9.8125 0 10.5879 0.15067 11.3262 0.452009C12.0645 0.753348 12.7031 1.16071 13.2422 1.67411C13.7812 2.1875 14.209 2.79576 14.5254 3.49888C14.8418 4.20201 15 4.94048 15 5.71429C15 6.80804 14.6914 7.81994 14.0742 8.75ZM9 1.42857C7.75781 1.42857 6.69727 1.8471 5.81836 2.68415C4.93945 3.52121 4.5 4.53125 4.5 5.71429C4.5 6.89732 4.93945 7.90737 5.81836 8.74442C6.69727 9.58147 7.75781 10 9 10C10.2422 10 11.3027 9.58147 12.1816 8.74442C13.0605 7.90737 13.5 6.89732 13.5 5.71429C13.5 4.53125 13.0605 3.52121 12.1816 2.68415C11.3027 1.8471 10.2422 1.42857 9 1.42857ZM14.0039 18.5714C14.6914 18.5714 15.2793 18.3054 15.7676 17.7734C16.2559 17.2414 16.5 16.596 16.5 15.8371C16.5 14.0588 16.1934 12.6562 15.5801 11.6295C14.9668 10.6027 14.0859 10.0632 12.9375 10.0112C11.8047 10.9561 10.4922 11.4286 9 11.4286C7.50781 11.4286 6.19531 10.9561 5.0625 10.0112C3.91406 10.0632 3.0332 10.6027 2.41992 11.6295C1.80664 12.6562 1.5 14.0588 1.5 15.8371C1.5 16.596 1.74414 17.2414 2.23242 17.7734C2.7207 18.3054 3.30859 18.5714 3.99609 18.5714H14.0039Z" fill="#020305"/>
</svg>
