<svg width="22" height="22" viewBox="0 0 22 22" fill="none" xmlns="http://www.w3.org/2000/svg">
<path d="M19.8642 13.1083L19.4975 17.6916C19.36 19.0941 19.25 20.1666 16.7658 20.1666H5.23417C2.75 20.1666 2.64 19.0941 2.5025 17.6916L2.13583 13.1083C2.0625 12.3475 2.30083 11.6416 2.73167 11.1008L2.75 11.0825C3.25417 10.4683 4.015 10.0833 4.8675 10.0833H17.1325C17.985 10.0833 18.7367 10.4683 19.2317 11.0641C19.2408 11.0733 19.25 11.0825 19.25 11.0916C19.6992 11.6325 19.9467 12.3383 19.8642 13.1083Z" stroke="#F8BD26" stroke-width="1.5" stroke-miterlimit="10"/>
<path d="M3.20833 10.4775V5.75667C3.20833 2.64001 3.9875 1.86084 7.10417 1.86084H8.26833C9.4325 1.86084 9.69833 2.20917 10.1383 2.79584L11.3025 4.35417C11.5958 4.73917 11.77 4.97751 12.5492 4.97751H14.8867C18.0033 4.97751 18.7825 5.75667 18.7825 8.87334V10.5142M8.64417 15.5833H13.3558" stroke="#F8BD26" stroke-width="1.5" stroke-miterlimit="10" stroke-linecap="round" stroke-linejoin="round"/>
</svg>
