<svg width="24" height="24" viewBox="0 0 24 24" fill="none" xmlns="http://www.w3.org/2000/svg">
<path d="M14.32 19.07C14.32 19.68 13.92 20.48 13.41 20.79L12 21.7C10.69 22.51 8.87 21.6 8.87 19.98V14.63C8.87 13.92 8.47 13.01 8.06 12.51L4.22 8.47001C3.71 7.96001 3.31 7.06001 3.31 6.45001V4.13001C3.31 2.92001 4.22 2.01001 5.33 2.01001H18.67C19.78 2.01001 20.69 2.92001 20.69 4.03001V6.25001C20.69 7.06001 20.18 8.07001 19.68 8.57001" stroke="#2F2E41" stroke-width="1.5" stroke-miterlimit="10" stroke-linecap="round" stroke-linejoin="round"/>
<path d="M19.87 17.12L18.87 16.12M16.07 16.52C16.9187 16.52 17.7326 16.1829 18.3327 15.5827C18.9329 14.9826 19.27 14.1687 19.27 13.32C19.27 12.4713 18.9329 11.6574 18.3327 11.0573C17.7326 10.4571 16.9187 10.12 16.07 10.12C15.2213 10.12 14.4074 10.4571 13.8073 11.0573C13.2071 11.6574 12.87 12.4713 12.87 13.32C12.87 14.1687 13.2071 14.9826 13.8073 15.5827C14.4074 16.1829 15.2213 16.52 16.07 16.52Z" stroke="#2F2E41" stroke-width="1.5" stroke-linecap="round" stroke-linejoin="round"/>
</svg>
