<svg width="20" height="10" viewBox="0 0 20 10" fill="none" xmlns="http://www.w3.org/2000/svg">
<path d="M0.842406 4.82665C1.77823 3.61355 3.00829 2.31466 3.34781 2.31466C3.51982 2.31466 3.9347 2.96297 4.20922 3.39199C4.71539 4.18299 5.2388 5.00085 5.82149 5.00085C6.36755 5.00085 6.9047 4.27173 7.47336 3.49981C7.87649 2.95275 8.37825 2.27169 8.65458 2.27169C8.93656 2.27169 9.43695 2.9818 9.83905 3.55225C10.3703 4.3061 10.8721 5.01807 11.3751 5.01807C11.8795 5.01807 12.3466 4.31268 12.841 3.56593C13.2508 2.94718 13.7152 2.24576 14.0397 2.24576C14.3619 2.24576 14.8263 2.93679 15.2361 3.54626C15.7419 4.29876 16.2196 5.00937 16.7378 5.00937C17.5709 5.00937 19.201 2.79435 19.6808 2.11548C19.93 1.76278 19.9924 1.06331 19.8202 0.553229C19.6478 0.0429784 19.3061 -0.0846884 19.0569 0.268088C18.2052 1.47325 17.0701 2.76378 16.7378 2.76378C16.5762 2.76378 16.1579 2.1414 15.881 1.7296C15.3361 0.91884 14.7184 0 14.0396 0C13.3543 0 12.7355 0.934377 12.1896 1.75882C11.9393 2.13692 11.5204 2.76952 11.375 2.77239C11.2146 2.77172 10.7448 2.10501 10.464 1.70663C9.8817 0.880337 9.27955 0.0259226 8.65441 0.0259226C8.04735 0.0259226 7.44721 0.840399 6.86683 1.62845C6.51646 2.10391 6.03665 2.75534 5.82128 2.75534C5.60951 2.75534 5.18485 2.09175 4.87478 1.60717C4.39092 0.850868 3.89053 0.0689861 3.3476 0.0689861C2.52464 0.0689861 0.772447 2.2586 0.255016 2.92961C-0.000895284 3.26145 -0.0768766 3.95518 0.0852333 4.47911C0.247508 5.0027 0.586454 5.15832 0.842406 4.82665Z" fill="#0071CE"/>
<path d="M19.9027 5.53492C19.7303 5.02475 19.3886 4.897 19.1394 5.24977C18.2878 6.45485 17.1527 7.74538 16.8203 7.74538C16.6587 7.74538 16.2404 7.12309 15.9636 6.71129C15.4186 5.90053 14.8009 4.98169 14.1222 4.98169C13.4368 4.98169 12.8181 5.91606 12.2721 6.74059C12.0219 7.11861 11.6029 7.75121 11.4575 7.75408C11.2972 7.75349 10.8273 7.08669 10.5465 6.68832C9.96422 5.86202 9.36206 5.00761 8.73693 5.00761C8.12986 5.00761 7.52973 5.82217 6.94935 6.61005C6.59898 7.08568 6.11917 7.73702 5.9038 7.73702C5.69203 7.73702 5.26737 7.07344 4.9573 6.58877C4.47344 5.83264 3.97305 5.05067 3.43012 5.05067C2.60716 5.05067 0.854967 7.24028 0.337535 7.91122C0.0816243 8.24322 0.00564297 8.93679 0.167753 9.4608C0.329863 9.98464 0.668767 10.1403 0.92472 9.80859C1.86054 8.59549 3.0906 7.2966 3.43012 7.2966C3.60213 7.2966 4.01702 7.94491 4.29153 8.37393C4.7977 9.16493 5.32111 9.98278 5.9038 9.98278C6.44986 9.98278 6.98701 9.25368 7.55567 8.48176C7.9588 7.93469 8.46056 7.25354 8.73689 7.25354C9.01887 7.25354 9.51927 7.96365 9.92136 8.53419C10.4527 9.28813 10.9545 10 11.4574 10C11.9619 10 12.4289 9.29463 12.9234 8.54787C13.3332 7.92912 13.7975 7.2277 14.1221 7.2277C14.4443 7.2277 14.9086 7.91865 15.3185 8.5282C15.8243 9.28069 16.302 9.9914 16.8202 9.9914C17.6532 9.9914 19.2834 7.77629 19.7632 7.09742C20.0126 6.74456 20.0749 6.045 19.9027 5.53492Z" fill="#0071CE"/>
</svg>
